<svg xmlns="http://www.w3.org/2000/svg" version="1.1" xmlns:xlink="http://www.w3.org/1999/xlink" xmlns:svgjs="http://svgjs.dev/svgjs" width="1000" height="1125" viewBox="0 0 1000 1125"><g transform="matrix(1,0,0,1,0,0)"><svg viewBox="0 0 320 360" data-background-color="#ffffff" preserveAspectRatio="xMidYMid meet" height="1125" width="1000" xmlns="http://www.w3.org/2000/svg" xmlns:xlink="http://www.w3.org/1999/xlink"><g id="tight-bounds" transform="matrix(1,0,0,1,0,0)"><svg viewBox="0 0 320 360" height="360" width="320"><g><svg></svg></g><g><svg viewBox="0 0 320 360" height="360" width="320"><g><path d="M297.491 100.645c-12.426-21.51-112.674-79.355-137.491-79.355-24.817 0-125.028 57.845-137.491 79.355-11.591 20.02-11.591 138.726 0 158.746 12.463 21.474 112.674 79.319 137.491 79.319 24.817 0 125.064-57.845 137.491-79.355 11.591-20.02 11.591-138.69 0-158.71zM309.481 93.705c-14.461-24.998-119.469-86.295-149.481-86.295-30.012 0-135.02 61.297-149.481 86.295-14.025 24.199-14.025 148.391 0 172.59 14.461 24.998 119.469 86.295 149.481 86.295 30.012 0 135.02-61.297 149.481-86.259 14.025-24.235 14.025-148.427 0-172.626zM300.906 261.353c-12.753 22.055-115.472 81.317-140.906 81.318-25.434 0-128.153-59.298-140.906-81.354-11.881-20.529-11.881-142.178 0-162.707 12.753-22.019 115.472-81.281 140.906-81.281 25.434 0 128.153 59.298 140.906 81.318 11.881 20.529 11.881 142.178 0 162.706z" fill="#7a26c1" fill-rule="nonzero" stroke="none" stroke-width="1" stroke-linecap="butt" stroke-linejoin="miter" stroke-miterlimit="10" stroke-dasharray="" stroke-dashoffset="0" font-family="none" font-weight="none" font-size="none" text-anchor="none" style="mix-blend-mode: normal" data-fill-palette-color="tertiary"></path></g><g transform="matrix(1,0,0,1,72.59493777777777,90)"><svg viewBox="0 0 174.81012444444445 180" height="180" width="174.81012444444445"><g><svg viewBox="0 0 174.81012444444445 180" height="180" width="174.81012444444445"><g><svg viewBox="0 0 81.77777777777779 180" height="180" width="81.77777777777779"><g><svg viewBox="0 0 81.77777777777779 180" height="180" width="81.77777777777779"><g><svg viewBox="0 0 81.77777777777779 180" height="180" width="81.77777777777779"><g transform="matrix(1,0,0,1,0,0)"><svg width="81.77777777777779" viewBox="1.65 -40.5 18.400000000000002 40.5" height="180" data-palette-color="#ffffff"><path d="M20.05 0L1.65 0 1.65-4.75 12.55-35.4 2.25-35.4 2.25-40.5 20-40.5 20-36.7 8.7-5.1 20.05-5.1 20.05 0Z" opacity="1" transform="matrix(1,0,0,1,0,0)" fill="#ffffff" class="undefined-text-0" data-fill-palette-color="quaternary" id="text-0"></path></svg></g></svg></g></svg></g></svg></g><g transform="matrix(1,0,0,1,124.27145777777778,64.73066666666666)"><svg viewBox="0 0 50.53866666666667 50.53866666666667" height="50.53866666666667" width="50.53866666666667"><g data-palette-color="#ffffff"><rect width="13.813902222222223" height="50.53866666666667" fill="#ffffff" stroke="transparent" data-fill-palette-color="quaternary" x="0" fill-opacity="1"></rect><rect width="13.813902222222223" height="50.53866666666667" fill="#ffffff" stroke="transparent" data-fill-palette-color="quaternary" x="16.846222222222224" fill-opacity="0.75"></rect><rect width="13.813902222222223" height="50.53866666666667" fill="#ffffff" stroke="transparent" data-fill-palette-color="quaternary" x="33.69244444444445" fill-opacity="0.5"></rect></g></svg></g></svg></g></svg></g></svg></g><defs></defs></svg><rect width="320" height="360" fill="none" stroke="none" visibility="hidden"></rect></g></svg></g></svg>